<?xml version="1.0" encoding="UTF-8"?>
<svg version="1.1" xmlns="http://www.w3.org/2000/svg" width="361" height="385">
<path d="M0 0 C11.88 0 23.76 0 36 0 C36 3.96 36 7.92 36 12 C39.96 12 43.92 12 48 12 C48 19.92 48 27.84 48 36 C51.96 36 55.92 36 60 36 C60 39.96 60 43.92 60 48 C63.96 48 67.92 48 72 48 C72 67.8 72 87.6 72 108 C75.96 108 79.92 108 84 108 C84 123.84 84 139.68 84 156 C80.04 156 76.08 156 72 156 C72 163.92 72 171.84 72 180 C68.04 180 64.08 180 60 180 C60 183.96 60 187.92 60 192 C67.92 192 75.84 192 84 192 C84 195.96 84 199.92 84 204 C87.96 204 91.92 204 96 204 C96 200.04 96 196.08 96 192 C99.96 192 103.92 192 108 192 C108 195.96 108 199.92 108 204 C111.96 204 115.92 204 120 204 C120 211.92 120 219.84 120 228 C116.04 228 112.08 228 108 228 C108 231.96 108 235.92 108 240 C104.04 240 100.08 240 96 240 C96 243.96 96 247.92 96 252 C92.04 252 88.08 252 84 252 C84 255.96 84 259.92 84 264 C80.04 264 76.08 264 72 264 C72 271.92 72 279.84 72 288 C75.96 288 79.92 288 84 288 C84 303.84 84 319.68 84 336 C80.04 336 76.08 336 72 336 C72 339.96 72 343.92 72 348 C68.04 348 64.08 348 60 348 C60 351.96 60 355.92 60 360 C52.08 360 44.16 360 36 360 C36 356.04 36 352.08 36 348 C32.04 348 28.08 348 24 348 C24 344.04 24 340.08 24 336 C16.08 336 8.16 336 0 336 C0 347.88 0 359.76 0 372 C-7.92 372 -15.84 372 -24 372 C-24 368.04 -24 364.08 -24 360 C-27.96 360 -31.92 360 -36 360 C-36 356.04 -36 352.08 -36 348 C-47.88 348 -59.76 348 -72 348 C-72 351.96 -72 355.92 -72 360 C-75.96 360 -79.92 360 -84 360 C-84 363.96 -84 367.92 -84 372 C-87.96 372 -91.92 372 -96 372 C-96 375.96 -96 379.92 -96 384 C-99.96 384 -103.92 384 -108 384 C-108 380.04 -108 376.08 -108 372 C-111.96 372 -115.92 372 -120 372 C-120 364.08 -120 356.16 -120 348 C-116.04 348 -112.08 348 -108 348 C-108 344.04 -108 340.08 -108 336 C-115.92 336 -123.84 336 -132 336 C-132 332.04 -132 328.08 -132 324 C-135.96 324 -139.92 324 -144 324 C-144 331.92 -144 339.84 -144 348 C-147.96 348 -151.92 348 -156 348 C-156 351.96 -156 355.92 -156 360 C-159.96 360 -163.92 360 -168 360 C-168 363.96 -168 367.92 -168 372 C-175.92 372 -183.84 372 -192 372 C-192 368.04 -192 364.08 -192 360 C-195.96 360 -199.92 360 -204 360 C-204 356.04 -204 352.08 -204 348 C-207.96 348 -211.92 348 -216 348 C-216 344.04 -216 340.08 -216 336 C-219.96 336 -223.92 336 -228 336 C-228 328.08 -228 320.16 -228 312 C-231.96 312 -235.92 312 -240 312 C-240 252.6 -240 193.2 -240 132 C-236.04 132 -232.08 132 -228 132 C-228 120.12 -228 108.24 -228 96 C-224.04 96 -220.08 96 -216 96 C-216 88.08 -216 80.16 -216 72 C-212.04 72 -208.08 72 -204 72 C-204 64.08 -204 56.16 -204 48 C-200.04 48 -196.08 48 -192 48 C-192 44.04 -192 40.08 -192 36 C-188.04 36 -184.08 36 -180 36 C-180 32.04 -180 28.08 -180 24 C-176.04 24 -172.08 24 -168 24 C-168 20.04 -168 16.08 -168 12 C-156.12 12 -144.24 12 -132 12 C-132 15.96 -132 19.92 -132 24 C-92.4 24 -52.8 24 -12 24 C-12 20.04 -12 16.08 -12 12 C-8.04 12 -4.08 12 0 12 C0 8.04 0 4.08 0 0 Z M48 48 C48 55.92 48 63.84 48 72 C51.96 72 55.92 72 60 72 C60 64.08 60 56.16 60 48 C56.04 48 52.08 48 48 48 Z M-156 204 C-156 207.96 -156 211.92 -156 216 C-152.04 216 -148.08 216 -144 216 C-144 212.04 -144 208.08 -144 204 C-147.96 204 -151.92 204 -156 204 Z M-168 216 C-168 227.88 -168 239.76 -168 252 C-164.04 252 -160.08 252 -156 252 C-156 267.84 -156 283.68 -156 300 C-152.04 300 -148.08 300 -144 300 C-144 296.04 -144 292.08 -144 288 C-140.04 288 -136.08 288 -132 288 C-132 284.04 -132 280.08 -132 276 C-128.04 276 -124.08 276 -120 276 C-120 272.04 -120 268.08 -120 264 C-116.04 264 -112.08 264 -108 264 C-108 260.04 -108 256.08 -108 252 C-115.92 252 -123.84 252 -132 252 C-132 248.04 -132 244.08 -132 240 C-135.96 240 -139.92 240 -144 240 C-144 236.04 -144 232.08 -144 228 C-147.96 228 -151.92 228 -156 228 C-156 224.04 -156 220.08 -156 216 C-159.96 216 -163.92 216 -168 216 Z M60 252 C60 255.96 60 259.92 60 264 C63.96 264 67.92 264 72 264 C72 260.04 72 256.08 72 252 C68.04 252 64.08 252 60 252 Z " fill="#009688" transform="translate(241,1)"/>
<path d="M0 0 C11.88 0 23.76 0 36 0 C36 3.96 36 7.92 36 12 C39.96 12 43.92 12 48 12 C48 19.92 48 27.84 48 36 C51.96 36 55.92 36 60 36 C60 39.96 60 43.92 60 48 C56.04 48 52.08 48 48 48 C48 55.92 48 63.84 48 72 C44.04 72 40.08 72 36 72 C36 68.04 36 64.08 36 60 C32.04 60 28.08 60 24 60 C24 56.04 24 52.08 24 48 C16.08 48 8.16 48 0 48 C0 44.04 0 40.08 0 36 C-39.6 36 -79.2 36 -120 36 C-120 39.96 -120 43.92 -120 48 C-116.04 48 -112.08 48 -108 48 C-108 51.96 -108 55.92 -108 60 C-111.96 60 -115.92 60 -120 60 C-120 63.96 -120 67.92 -120 72 C-123.96 72 -127.92 72 -132 72 C-132 75.96 -132 79.92 -132 84 C-135.96 84 -139.92 84 -144 84 C-144 87.96 -144 91.92 -144 96 C-147.96 96 -151.92 96 -156 96 C-156 99.96 -156 103.92 -156 108 C-159.96 108 -163.92 108 -168 108 C-168 135.72 -168 163.44 -168 192 C-164.04 192 -160.08 192 -156 192 C-156 184.08 -156 176.16 -156 168 C-152.04 168 -148.08 168 -144 168 C-144 160.08 -144 152.16 -144 144 C-140.04 144 -136.08 144 -132 144 C-132 155.88 -132 167.76 -132 180 C-124.08 180 -116.16 180 -108 180 C-108 199.8 -108 219.6 -108 240 C-104.04 240 -100.08 240 -96 240 C-96 247.92 -96 255.84 -96 264 C-99.96 264 -103.92 264 -108 264 C-108 267.96 -108 271.92 -108 276 C-100.08 276 -92.16 276 -84 276 C-84 279.96 -84 283.92 -84 288 C-80.04 288 -76.08 288 -72 288 C-72 295.92 -72 303.84 -72 312 C-64.08 312 -56.16 312 -48 312 C-48 308.04 -48 304.08 -48 300 C-44.04 300 -40.08 300 -36 300 C-36 296.04 -36 292.08 -36 288 C-32.04 288 -28.08 288 -24 288 C-24 291.96 -24 295.92 -24 300 C-20.04 300 -16.08 300 -12 300 C-12 303.96 -12 307.92 -12 312 C-8.04 312 -4.08 312 0 312 C0 304.08 0 296.16 0 288 C-3.96 288 -7.92 288 -12 288 C-12 280.08 -12 272.16 -12 264 C-8.04 264 -4.08 264 0 264 C0 260.04 0 256.08 0 252 C-7.92 252 -15.84 252 -24 252 C-24 248.04 -24 244.08 -24 240 C-16.08 240 -8.16 240 0 240 C0 236.04 0 232.08 0 228 C3.96 228 7.92 228 12 228 C12 208.2 12 188.4 12 168 C8.04 168 4.08 168 0 168 C0 171.96 0 175.92 0 180 C-3.96 180 -7.92 180 -12 180 C-12 172.08 -12 164.16 -12 156 C-8.04 156 -4.08 156 0 156 C0 152.04 0 148.08 0 144 C-3.96 144 -7.92 144 -12 144 C-12 136.08 -12 128.16 -12 120 C-8.04 120 -4.08 120 0 120 C0 123.96 0 127.92 0 132 C3.96 132 7.92 132 12 132 C12 139.92 12 147.84 12 156 C15.96 156 19.92 156 24 156 C24 175.8 24 195.6 24 216 C27.96 216 31.92 216 36 216 C36 219.96 36 223.92 36 228 C32.04 228 28.08 228 24 228 C24 231.96 24 235.92 24 240 C20.04 240 16.08 240 12 240 C12 247.92 12 255.84 12 264 C19.92 264 27.84 264 36 264 C36 267.96 36 271.92 36 276 C32.04 276 28.08 276 24 276 C24 279.96 24 283.92 24 288 C20.04 288 16.08 288 12 288 C12 295.92 12 303.84 12 312 C15.96 312 19.92 312 24 312 C24 319.92 24 327.84 24 336 C16.08 336 8.16 336 0 336 C0 347.88 0 359.76 0 372 C-7.92 372 -15.84 372 -24 372 C-24 368.04 -24 364.08 -24 360 C-27.96 360 -31.92 360 -36 360 C-36 356.04 -36 352.08 -36 348 C-47.88 348 -59.76 348 -72 348 C-72 351.96 -72 355.92 -72 360 C-75.96 360 -79.92 360 -84 360 C-84 363.96 -84 367.92 -84 372 C-87.96 372 -91.92 372 -96 372 C-96 375.96 -96 379.92 -96 384 C-99.96 384 -103.92 384 -108 384 C-108 380.04 -108 376.08 -108 372 C-111.96 372 -115.92 372 -120 372 C-120 364.08 -120 356.16 -120 348 C-116.04 348 -112.08 348 -108 348 C-108 344.04 -108 340.08 -108 336 C-115.92 336 -123.84 336 -132 336 C-132 332.04 -132 328.08 -132 324 C-135.96 324 -139.92 324 -144 324 C-144 331.92 -144 339.84 -144 348 C-147.96 348 -151.92 348 -156 348 C-156 351.96 -156 355.92 -156 360 C-159.96 360 -163.92 360 -168 360 C-168 363.96 -168 367.92 -168 372 C-175.92 372 -183.84 372 -192 372 C-192 368.04 -192 364.08 -192 360 C-195.96 360 -199.92 360 -204 360 C-204 356.04 -204 352.08 -204 348 C-207.96 348 -211.92 348 -216 348 C-216 344.04 -216 340.08 -216 336 C-219.96 336 -223.92 336 -228 336 C-228 328.08 -228 320.16 -228 312 C-231.96 312 -235.92 312 -240 312 C-240 252.6 -240 193.2 -240 132 C-236.04 132 -232.08 132 -228 132 C-228 120.12 -228 108.24 -228 96 C-224.04 96 -220.08 96 -216 96 C-216 88.08 -216 80.16 -216 72 C-212.04 72 -208.08 72 -204 72 C-204 64.08 -204 56.16 -204 48 C-200.04 48 -196.08 48 -192 48 C-192 44.04 -192 40.08 -192 36 C-188.04 36 -184.08 36 -180 36 C-180 32.04 -180 28.08 -180 24 C-176.04 24 -172.08 24 -168 24 C-168 20.04 -168 16.08 -168 12 C-156.12 12 -144.24 12 -132 12 C-132 15.96 -132 19.92 -132 24 C-92.4 24 -52.8 24 -12 24 C-12 20.04 -12 16.08 -12 12 C-8.04 12 -4.08 12 0 12 C0 8.04 0 4.08 0 0 Z M-156 204 C-156 207.96 -156 211.92 -156 216 C-152.04 216 -148.08 216 -144 216 C-144 212.04 -144 208.08 -144 204 C-147.96 204 -151.92 204 -156 204 Z M-168 216 C-168 227.88 -168 239.76 -168 252 C-164.04 252 -160.08 252 -156 252 C-156 267.84 -156 283.68 -156 300 C-152.04 300 -148.08 300 -144 300 C-144 296.04 -144 292.08 -144 288 C-140.04 288 -136.08 288 -132 288 C-132 284.04 -132 280.08 -132 276 C-128.04 276 -124.08 276 -120 276 C-120 272.04 -120 268.08 -120 264 C-116.04 264 -112.08 264 -108 264 C-108 260.04 -108 256.08 -108 252 C-115.92 252 -123.84 252 -132 252 C-132 248.04 -132 244.08 -132 240 C-135.96 240 -139.92 240 -144 240 C-144 236.04 -144 232.08 -144 228 C-147.96 228 -151.92 228 -156 228 C-156 224.04 -156 220.08 -156 216 C-159.96 216 -163.92 216 -168 216 Z " fill="#009688" transform="translate(241,1)"/>
<path d="M0 0 C3.96 0 7.92 0 12 0 C12 3.96 12 7.92 12 12 C15.96 12 19.92 12 24 12 C24 19.92 24 27.84 24 36 C27.96 36 31.92 36 36 36 C36 55.8 36 75.6 36 96 C39.96 96 43.92 96 48 96 C48 99.96 48 103.92 48 108 C44.04 108 40.08 108 36 108 C36 111.96 36 115.92 36 120 C32.04 120 28.08 120 24 120 C24 127.92 24 135.84 24 144 C31.92 144 39.84 144 48 144 C48 147.96 48 151.92 48 156 C44.04 156 40.08 156 36 156 C36 159.96 36 163.92 36 168 C32.04 168 28.08 168 24 168 C24 175.92 24 183.84 24 192 C27.96 192 31.92 192 36 192 C36 199.92 36 207.84 36 216 C28.08 216 20.16 216 12 216 C12 227.88 12 239.76 12 252 C4.08 252 -3.84 252 -12 252 C-12 248.04 -12 244.08 -12 240 C-15.96 240 -19.92 240 -24 240 C-24 236.04 -24 232.08 -24 228 C-35.88 228 -47.76 228 -60 228 C-60 231.96 -60 235.92 -60 240 C-63.96 240 -67.92 240 -72 240 C-72 243.96 -72 247.92 -72 252 C-75.96 252 -79.92 252 -84 252 C-84 255.96 -84 259.92 -84 264 C-87.96 264 -91.92 264 -96 264 C-96 260.04 -96 256.08 -96 252 C-99.96 252 -103.92 252 -108 252 C-108 244.08 -108 236.16 -108 228 C-104.04 228 -100.08 228 -96 228 C-96 224.04 -96 220.08 -96 216 C-103.92 216 -111.84 216 -120 216 C-120 212.04 -120 208.08 -120 204 C-123.96 204 -127.92 204 -132 204 C-132 211.92 -132 219.84 -132 228 C-135.96 228 -139.92 228 -144 228 C-144 212.16 -144 196.32 -144 180 C-140.04 180 -136.08 180 -132 180 C-132 176.04 -132 172.08 -132 168 C-128.04 168 -124.08 168 -120 168 C-120 164.04 -120 160.08 -120 156 C-116.04 156 -112.08 156 -108 156 C-108 152.04 -108 148.08 -108 144 C-104.04 144 -100.08 144 -96 144 C-96 147.96 -96 151.92 -96 156 C-88.08 156 -80.16 156 -72 156 C-72 159.96 -72 163.92 -72 168 C-68.04 168 -64.08 168 -60 168 C-60 175.92 -60 183.84 -60 192 C-52.08 192 -44.16 192 -36 192 C-36 188.04 -36 184.08 -36 180 C-32.04 180 -28.08 180 -24 180 C-24 176.04 -24 172.08 -24 168 C-20.04 168 -16.08 168 -12 168 C-12 171.96 -12 175.92 -12 180 C-8.04 180 -4.08 180 0 180 C0 183.96 0 187.92 0 192 C3.96 192 7.92 192 12 192 C12 184.08 12 176.16 12 168 C8.04 168 4.08 168 0 168 C0 160.08 0 152.16 0 144 C3.96 144 7.92 144 12 144 C12 140.04 12 136.08 12 132 C4.08 132 -3.84 132 -12 132 C-12 128.04 -12 124.08 -12 120 C-4.08 120 3.84 120 12 120 C12 116.04 12 112.08 12 108 C15.96 108 19.92 108 24 108 C24 88.2 24 68.4 24 48 C20.04 48 16.08 48 12 48 C12 51.96 12 55.92 12 60 C8.04 60 4.08 60 0 60 C0 52.08 0 44.16 0 36 C3.96 36 7.92 36 12 36 C12 32.04 12 28.08 12 24 C8.04 24 4.08 24 0 24 C0 16.08 0 8.16 0 0 Z " fill="#000000" transform="translate(229,121)"/>
<path d="M0 0 C3.96 0 7.92 0 12 0 C12 7.92 12 15.84 12 24 C15.96 24 19.92 24 24 24 C24 27.96 24 31.92 24 36 C20.04 36 16.08 36 12 36 C12 43.92 12 51.84 12 60 C15.96 60 19.92 60 24 60 C24 56.04 24 52.08 24 48 C27.96 48 31.92 48 36 48 C36 67.8 36 87.6 36 108 C32.04 108 28.08 108 24 108 C24 111.96 24 115.92 24 120 C16.08 120 8.16 120 0 120 C0 123.96 0 127.92 0 132 C7.92 132 15.84 132 24 132 C24 135.96 24 139.92 24 144 C20.04 144 16.08 144 12 144 C12 151.92 12 159.84 12 168 C15.96 168 19.92 168 24 168 C24 175.92 24 183.84 24 192 C20.04 192 16.08 192 12 192 C12 188.04 12 184.08 12 180 C8.04 180 4.08 180 0 180 C0 176.04 0 172.08 0 168 C-3.96 168 -7.92 168 -12 168 C-12 171.96 -12 175.92 -12 180 C-15.96 180 -19.92 180 -24 180 C-24 183.96 -24 187.92 -24 192 C-31.92 192 -39.84 192 -48 192 C-48 184.08 -48 176.16 -48 168 C-51.96 168 -55.92 168 -60 168 C-60 164.04 -60 160.08 -60 156 C-67.92 156 -75.84 156 -84 156 C-84 152.04 -84 148.08 -84 144 C-80.04 144 -76.08 144 -72 144 C-72 136.08 -72 128.16 -72 120 C-75.96 120 -79.92 120 -84 120 C-84 100.2 -84 80.4 -84 60 C-80.04 60 -76.08 60 -72 60 C-72 63.96 -72 67.92 -72 72 C-64.08 72 -56.16 72 -48 72 C-48 68.04 -48 64.08 -48 60 C-44.04 60 -40.08 60 -36 60 C-36 63.96 -36 67.92 -36 72 C-32.04 72 -28.08 72 -24 72 C-24 64.08 -24 56.16 -24 48 C-20.04 48 -16.08 48 -12 48 C-12 40.08 -12 32.16 -12 24 C-8.04 24 -4.08 24 0 24 C0 16.08 0 8.16 0 0 Z " fill="#FAD5BB" transform="translate(217,121)"/>
<path d="M0 0 C3.96 0 7.92 0 12 0 C12 3.96 12 7.92 12 12 C15.96 12 19.92 12 24 12 C24 19.92 24 27.84 24 36 C20.04 36 16.08 36 12 36 C12 39.96 12 43.92 12 48 C19.92 48 27.84 48 36 48 C36 51.96 36 55.92 36 60 C39.96 60 43.92 60 48 60 C48 56.04 48 52.08 48 48 C51.96 48 55.92 48 60 48 C60 51.96 60 55.92 60 60 C63.96 60 67.92 60 72 60 C72 67.92 72 75.84 72 84 C68.04 84 64.08 84 60 84 C60 87.96 60 91.92 60 96 C56.04 96 52.08 96 48 96 C48 99.96 48 103.92 48 108 C44.04 108 40.08 108 36 108 C36 111.96 36 115.92 36 120 C32.04 120 28.08 120 24 120 C24 127.92 24 135.84 24 144 C27.96 144 31.92 144 36 144 C36 159.84 36 175.68 36 192 C32.04 192 28.08 192 24 192 C24 195.96 24 199.92 24 204 C20.04 204 16.08 204 12 204 C12 207.96 12 211.92 12 216 C4.08 216 -3.84 216 -12 216 C-12 212.04 -12 208.08 -12 204 C-15.96 204 -19.92 204 -24 204 C-24 192.12 -24 180.24 -24 168 C-27.96 168 -31.92 168 -36 168 C-36 160.08 -36 152.16 -36 144 C-32.04 144 -28.08 144 -24 144 C-24 140.04 -24 136.08 -24 132 C-20.04 132 -16.08 132 -12 132 C-12 128.04 -12 124.08 -12 120 C-19.92 120 -27.84 120 -36 120 C-36 112.08 -36 104.16 -36 96 C-32.04 96 -28.08 96 -24 96 C-24 92.04 -24 88.08 -24 84 C-20.04 84 -16.08 84 -12 84 C-12 72.12 -12 60.24 -12 48 C-8.04 48 -4.08 48 0 48 C0 32.16 0 16.32 0 0 Z M12 108 C12 111.96 12 115.92 12 120 C15.96 120 19.92 120 24 120 C24 116.04 24 112.08 24 108 C20.04 108 16.08 108 12 108 Z " fill="#009688" transform="translate(289,145)"/>
<path d="M0 0 C11.88 0 23.76 0 36 0 C36 3.96 36 7.92 36 12 C39.96 12 43.92 12 48 12 C48 19.92 48 27.84 48 36 C51.96 36 55.92 36 60 36 C60 39.96 60 43.92 60 48 C56.04 48 52.08 48 48 48 C48 55.92 48 63.84 48 72 C44.04 72 40.08 72 36 72 C36 68.04 36 64.08 36 60 C32.04 60 28.08 60 24 60 C24 56.04 24 52.08 24 48 C16.08 48 8.16 48 0 48 C0 44.04 0 40.08 0 36 C-39.6 36 -79.2 36 -120 36 C-120 39.96 -120 43.92 -120 48 C-116.04 48 -112.08 48 -108 48 C-108 51.96 -108 55.92 -108 60 C-111.96 60 -115.92 60 -120 60 C-120 63.96 -120 67.92 -120 72 C-123.96 72 -127.92 72 -132 72 C-132 75.96 -132 79.92 -132 84 C-135.96 84 -139.92 84 -144 84 C-144 87.96 -144 91.92 -144 96 C-147.96 96 -151.92 96 -156 96 C-156 80.16 -156 64.32 -156 48 C-159.96 48 -163.92 48 -168 48 C-168 44.04 -168 40.08 -168 36 C-171.96 36 -175.92 36 -180 36 C-180 32.04 -180 28.08 -180 24 C-176.04 24 -172.08 24 -168 24 C-168 20.04 -168 16.08 -168 12 C-156.12 12 -144.24 12 -132 12 C-132 15.96 -132 19.92 -132 24 C-92.4 24 -52.8 24 -12 24 C-12 20.04 -12 16.08 -12 12 C-8.04 12 -4.08 12 0 12 C0 8.04 0 4.08 0 0 Z " fill="#000000" transform="translate(241,1)"/>
<path d="M0 0 C7.92 0 15.84 0 24 0 C24 3.96 24 7.92 24 12 C20.04 12 16.08 12 12 12 C12 39.72 12 67.44 12 96 C15.96 96 19.92 96 24 96 C24 88.08 24 80.16 24 72 C27.96 72 31.92 72 36 72 C36 64.08 36 56.16 36 48 C39.96 48 43.92 48 48 48 C48 59.88 48 71.76 48 84 C55.92 84 63.84 84 72 84 C72 103.8 72 123.6 72 144 C75.96 144 79.92 144 84 144 C84 151.92 84 159.84 84 168 C80.04 168 76.08 168 72 168 C72 164.04 72 160.08 72 156 C64.08 156 56.16 156 48 156 C48 152.04 48 148.08 48 144 C44.04 144 40.08 144 36 144 C36 140.04 36 136.08 36 132 C32.04 132 28.08 132 24 132 C24 128.04 24 124.08 24 120 C20.04 120 16.08 120 12 120 C12 131.88 12 143.76 12 156 C8.04 156 4.08 156 0 156 C0 104.52 0 53.04 0 0 Z M24 108 C24 111.96 24 115.92 24 120 C27.96 120 31.92 120 36 120 C36 116.04 36 112.08 36 108 C32.04 108 28.08 108 24 108 Z " fill="#000000" transform="translate(61,97)"/>
<path d="M0 0 C3.96 0 7.92 0 12 0 C12 3.96 12 7.92 12 12 C15.96 12 19.92 12 24 12 C24 19.92 24 27.84 24 36 C20.04 36 16.08 36 12 36 C12 39.96 12 43.92 12 48 C19.92 48 27.84 48 36 48 C36 51.96 36 55.92 36 60 C39.96 60 43.92 60 48 60 C48 56.04 48 52.08 48 48 C51.96 48 55.92 48 60 48 C60 51.96 60 55.92 60 60 C63.96 60 67.92 60 72 60 C72 67.92 72 75.84 72 84 C68.04 84 64.08 84 60 84 C60 87.96 60 91.92 60 96 C56.04 96 52.08 96 48 96 C48 99.96 48 103.92 48 108 C44.04 108 40.08 108 36 108 C36 111.96 36 115.92 36 120 C32.04 120 28.08 120 24 120 C24 116.04 24 112.08 24 108 C16.08 108 8.16 108 0 108 C0 96.12 0 84.24 0 72 C-3.96 72 -7.92 72 -12 72 C-12 64.08 -12 56.16 -12 48 C-8.04 48 -4.08 48 0 48 C0 32.16 0 16.32 0 0 Z " fill="#000000" transform="translate(289,145)"/>
<path d="M0 0 C31.68 0 63.36 0 96 0 C96 3.96 96 7.92 96 12 C92.04 12 88.08 12 84 12 C84 19.92 84 27.84 84 36 C87.96 36 91.92 36 96 36 C96 43.92 96 51.84 96 60 C92.04 60 88.08 60 84 60 C84 56.04 84 52.08 84 48 C80.04 48 76.08 48 72 48 C72 44.04 72 40.08 72 36 C68.04 36 64.08 36 60 36 C60 39.96 60 43.92 60 48 C56.04 48 52.08 48 48 48 C48 51.96 48 55.92 48 60 C40.08 60 32.16 60 24 60 C24 52.08 24 44.16 24 36 C20.04 36 16.08 36 12 36 C12 32.04 12 28.08 12 24 C4.08 24 -3.84 24 -12 24 C-12 20.04 -12 16.08 -12 12 C-8.04 12 -4.08 12 0 12 C0 8.04 0 4.08 0 0 Z " fill="#9E9E9E" transform="translate(145,253)"/>
<path d="M0 0 C3.96 0 7.92 0 12 0 C12 3.96 12 7.92 12 12 C15.96 12 19.92 12 24 12 C24 19.92 24 27.84 24 36 C27.96 36 31.92 36 36 36 C36 55.8 36 75.6 36 96 C39.96 96 43.92 96 48 96 C48 99.96 48 103.92 48 108 C44.04 108 40.08 108 36 108 C36 111.96 36 115.92 36 120 C32.04 120 28.08 120 24 120 C24 127.92 24 135.84 24 144 C31.92 144 39.84 144 48 144 C48 147.96 48 151.92 48 156 C44.04 156 40.08 156 36 156 C36 159.96 36 163.92 36 168 C32.04 168 28.08 168 24 168 C24 175.92 24 183.84 24 192 C20.04 192 16.08 192 12 192 C12 184.08 12 176.16 12 168 C8.04 168 4.08 168 0 168 C0 160.08 0 152.16 0 144 C3.96 144 7.92 144 12 144 C12 140.04 12 136.08 12 132 C4.08 132 -3.84 132 -12 132 C-12 128.04 -12 124.08 -12 120 C-4.08 120 3.84 120 12 120 C12 116.04 12 112.08 12 108 C15.96 108 19.92 108 24 108 C24 88.2 24 68.4 24 48 C20.04 48 16.08 48 12 48 C12 51.96 12 55.92 12 60 C8.04 60 4.08 60 0 60 C0 52.08 0 44.16 0 36 C3.96 36 7.92 36 12 36 C12 32.04 12 28.08 12 24 C8.04 24 4.08 24 0 24 C0 16.08 0 8.16 0 0 Z " fill="#000000" transform="translate(229,121)"/>
<path d="M0 0 C35.64 0 71.28 0 108 0 C108 11.88 108 23.76 108 36 C100.08 36 92.16 36 84 36 C84 32.04 84 28.08 84 24 C80.04 24 76.08 24 72 24 C72 20.04 72 16.08 72 12 C60.12 12 48.24 12 36 12 C36 15.96 36 19.92 36 24 C32.04 24 28.08 24 24 24 C24 27.96 24 31.92 24 36 C20.04 36 16.08 36 12 36 C12 39.96 12 43.92 12 48 C8.04 48 4.08 48 0 48 C0 44.04 0 40.08 0 36 C-3.96 36 -7.92 36 -12 36 C-12 28.08 -12 20.16 -12 12 C-8.04 12 -4.08 12 0 12 C0 8.04 0 4.08 0 0 Z " fill="#000000" transform="translate(133,337)"/>
<path d="M0 0 C3.96 0 7.92 0 12 0 C12 11.88 12 23.76 12 36 C15.96 36 19.92 36 24 36 C24 43.92 24 51.84 24 60 C20.04 60 16.08 60 12 60 C12 63.96 12 67.92 12 72 C8.04 72 4.08 72 0 72 C0 75.96 0 79.92 0 84 C-3.96 84 -7.92 84 -12 84 C-12 87.96 -12 91.92 -12 96 C-15.96 96 -19.92 96 -24 96 C-24 88.08 -24 80.16 -24 72 C-20.04 72 -16.08 72 -12 72 C-12 68.04 -12 64.08 -12 60 C-8.04 60 -4.08 60 0 60 C0 56.04 0 52.08 0 48 C-7.92 48 -15.84 48 -24 48 C-24 40.08 -24 32.16 -24 24 C-20.04 24 -16.08 24 -12 24 C-12 20.04 -12 16.08 -12 12 C-8.04 12 -4.08 12 0 12 C0 8.04 0 4.08 0 0 Z " fill="#009688" transform="translate(277,217)"/>
<path d="M0 0 C3.96 0 7.92 0 12 0 C12 3.96 12 7.92 12 12 C15.96 12 19.92 12 24 12 C24 19.92 24 27.84 24 36 C20.04 36 16.08 36 12 36 C12 39.96 12 43.92 12 48 C8.04 48 4.08 48 0 48 C0 51.96 0 55.92 0 60 C-3.96 60 -7.92 60 -12 60 C-12 63.96 -12 67.92 -12 72 C-15.96 72 -19.92 72 -24 72 C-24 68.04 -24 64.08 -24 60 C-27.96 60 -31.92 60 -36 60 C-36 44.16 -36 28.32 -36 12 C-32.04 12 -28.08 12 -24 12 C-24 19.92 -24 27.84 -24 36 C-20.04 36 -16.08 36 -12 36 C-12 32.04 -12 28.08 -12 24 C-8.04 24 -4.08 24 0 24 C0 16.08 0 8.16 0 0 Z " fill="#8BC34A" transform="translate(337,193)"/>
<path d="M0 0 C3.96 0 7.92 0 12 0 C12 59.4 12 118.8 12 180 C8.04 180 4.08 180 0 180 C0 120.6 0 61.2 0 0 Z " fill="#000000" transform="translate(1,133)"/>
<path d="M0 0 C7.92 0 15.84 0 24 0 C24 15.84 24 31.68 24 48 C8.16 48 -7.68 48 -24 48 C-24 44.04 -24 40.08 -24 36 C-20.04 36 -16.08 36 -12 36 C-12 32.04 -12 28.08 -12 24 C-8.04 24 -4.08 24 0 24 C0 16.08 0 8.16 0 0 Z " fill="#009688" transform="translate(181,121)"/>
<path d="M0 0 C35.64 0 71.28 0 108 0 C108 3.96 108 7.92 108 12 C72.36 12 36.72 12 0 12 C0 8.04 0 4.08 0 0 Z " fill="#26A69A" transform="translate(133,325)"/>
<path d="M0 0 C3.96 0 7.92 0 12 0 C12 15.84 12 31.68 12 48 C15.96 48 19.92 48 24 48 C24 55.92 24 63.84 24 72 C20.04 72 16.08 72 12 72 C12 68.04 12 64.08 12 60 C4.08 60 -3.84 60 -12 60 C-12 52.08 -12 44.16 -12 36 C-8.04 36 -4.08 36 0 36 C0 24.12 0 12.24 0 0 Z " fill="#009688" transform="translate(121,193)"/>
<path d="M0 0 C3.96 0 7.92 0 12 0 C12 3.96 12 7.92 12 12 C23.88 12 35.76 12 48 12 C48 19.92 48 27.84 48 36 C44.04 36 40.08 36 36 36 C36 32.04 36 28.08 36 24 C32.04 24 28.08 24 24 24 C24 27.96 24 31.92 24 36 C16.08 36 8.16 36 0 36 C0 32.04 0 28.08 0 24 C-3.96 24 -7.92 24 -12 24 C-12 20.04 -12 16.08 -12 12 C-8.04 12 -4.08 12 0 12 C0 8.04 0 4.08 0 0 Z " fill="#000000" transform="translate(145,157)"/>
<path d="M0 0 C3.96 0 7.92 0 12 0 C12 7.92 12 15.84 12 24 C8.04 24 4.08 24 0 24 C0 27.96 0 31.92 0 36 C-3.96 36 -7.92 36 -12 36 C-12 39.96 -12 43.92 -12 48 C-15.96 48 -19.92 48 -24 48 C-24 51.96 -24 55.92 -24 60 C-27.96 60 -31.92 60 -36 60 C-36 52.08 -36 44.16 -36 36 C-32.04 36 -28.08 36 -24 36 C-24 32.04 -24 28.08 -24 24 C-20.04 24 -16.08 24 -12 24 C-12 20.04 -12 16.08 -12 12 C-8.04 12 -4.08 12 0 12 C0 8.04 0 4.08 0 0 Z " fill="#FFFFFF" transform="translate(289,253)"/>
<path d="M0 0 C3.96 0 7.92 0 12 0 C12 3.96 12 7.92 12 12 C19.92 12 27.84 12 36 12 C36 15.96 36 19.92 36 24 C39.96 24 43.92 24 48 24 C48 27.96 48 31.92 48 36 C40.08 36 32.16 36 24 36 C24 32.04 24 28.08 24 24 C16.08 24 8.16 24 0 24 C0 16.08 0 8.16 0 0 Z " fill="#009688" transform="translate(121,265)"/>
<path d="M0 0 C3.96 0 7.92 0 12 0 C12 19.8 12 39.6 12 60 C8.04 60 4.08 60 0 60 C0 52.08 0 44.16 0 36 C-3.96 36 -7.92 36 -12 36 C-12 32.04 -12 28.08 -12 24 C-8.04 24 -4.08 24 0 24 C0 16.08 0 8.16 0 0 Z " fill="#000000" transform="translate(301,49)"/>
<path d="M0 0 C3.96 0 7.92 0 12 0 C12 11.88 12 23.76 12 36 C4.08 36 -3.84 36 -12 36 C-12 28.08 -12 20.16 -12 12 C-8.04 12 -4.08 12 0 12 C0 8.04 0 4.08 0 0 Z " fill="#2196F3" transform="translate(157,193)"/>
<path d="M0 0 C3.96 0 7.92 0 12 0 C12 15.84 12 31.68 12 48 C8.04 48 4.08 48 0 48 C0 32.16 0 16.32 0 0 Z " fill="#000000" transform="translate(313,289)"/>
<path d="M0 0 C3.96 0 7.92 0 12 0 C12 15.84 12 31.68 12 48 C8.04 48 4.08 48 0 48 C0 32.16 0 16.32 0 0 Z " fill="#000000" transform="translate(73,253)"/>
<path d="M0 0 C11.88 0 23.76 0 36 0 C36 7.92 36 15.84 36 24 C32.04 24 28.08 24 24 24 C24 20.04 24 16.08 24 12 C16.08 12 8.16 12 0 12 C0 8.04 0 4.08 0 0 Z " fill="#000000" transform="translate(109,241)"/>
<path d="M0 0 C3.96 0 7.92 0 12 0 C12 3.96 12 7.92 12 12 C15.96 12 19.92 12 24 12 C24 15.96 24 19.92 24 24 C20.04 24 16.08 24 12 24 C12 27.96 12 31.92 12 36 C8.04 36 4.08 36 0 36 C0 24.12 0 12.24 0 0 Z " fill="#FFFFFF" transform="translate(133,181)"/>
<path d="M0 0 C3.96 0 7.92 0 12 0 C12 15.84 12 31.68 12 48 C8.04 48 4.08 48 0 48 C0 32.16 0 16.32 0 0 Z " fill="#000000" transform="translate(313,109)"/>
<path d="M0 0 C3.96 0 7.92 0 12 0 C12 7.92 12 15.84 12 24 C4.08 24 -3.84 24 -12 24 C-12 20.04 -12 16.08 -12 12 C-8.04 12 -4.08 12 0 12 C0 8.04 0 4.08 0 0 Z " fill="#000000" transform="translate(253,313)"/>
<path d="M0 0 C7.92 0 15.84 0 24 0 C24 7.92 24 15.84 24 24 C20.04 24 16.08 24 12 24 C12 20.04 12 16.08 12 12 C8.04 12 4.08 12 0 12 C0 8.04 0 4.08 0 0 Z " fill="#9E9E9E" transform="translate(217,289)"/>
<path d="M0 0 C3.96 0 7.92 0 12 0 C12 7.92 12 15.84 12 24 C4.08 24 -3.84 24 -12 24 C-12 20.04 -12 16.08 -12 12 C-8.04 12 -4.08 12 0 12 C0 8.04 0 4.08 0 0 Z " fill="#000000" transform="translate(301,265)"/>
<path d="M0 0 C3.96 0 7.92 0 12 0 C12 11.88 12 23.76 12 36 C8.04 36 4.08 36 0 36 C0 24.12 0 12.24 0 0 Z " fill="#009688" transform="translate(205,253)"/>
<path d="M0 0 C3.96 0 7.92 0 12 0 C12 11.88 12 23.76 12 36 C8.04 36 4.08 36 0 36 C0 24.12 0 12.24 0 0 Z " fill="#009688" transform="translate(229,181)"/>
<path d="M0 0 C3.96 0 7.92 0 12 0 C12 11.88 12 23.76 12 36 C8.04 36 4.08 36 0 36 C0 24.12 0 12.24 0 0 Z " fill="#E91E63" transform="translate(109,193)"/>
<path d="M0 0 C3.96 0 7.92 0 12 0 C12 11.88 12 23.76 12 36 C8.04 36 4.08 36 0 36 C0 24.12 0 12.24 0 0 Z " fill="#FFFFFF" transform="translate(241,169)"/>
<path d="M0 0 C11.88 0 23.76 0 36 0 C36 3.96 36 7.92 36 12 C24.12 12 12.24 12 0 12 C0 8.04 0 4.08 0 0 Z " fill="#FFFFFF" transform="translate(133,121)"/>
<path d="M0 0 C11.88 0 23.76 0 36 0 C36 3.96 36 7.92 36 12 C24.12 12 12.24 12 0 12 C0 8.04 0 4.08 0 0 Z " fill="#FFFFFF" transform="translate(241,109)"/>
<path d="M0 0 C3.96 0 7.92 0 12 0 C12 11.88 12 23.76 12 36 C8.04 36 4.08 36 0 36 C0 24.12 0 12.24 0 0 Z " fill="#000000" transform="translate(109,109)"/>
<path d="M0 0 C3.96 0 7.92 0 12 0 C12 11.88 12 23.76 12 36 C8.04 36 4.08 36 0 36 C0 24.12 0 12.24 0 0 Z " fill="#000000" transform="translate(13,97)"/>
<path d="M0 0 C7.92 0 15.84 0 24 0 C24 3.96 24 7.92 24 12 C16.08 12 8.16 12 0 12 C0 8.04 0 4.08 0 0 Z " fill="#000000" transform="translate(49,361)"/>
<path d="M0 0 C7.92 0 15.84 0 24 0 C24 3.96 24 7.92 24 12 C16.08 12 8.16 12 0 12 C0 8.04 0 4.08 0 0 Z " fill="#000000" transform="translate(277,349)"/>
<path d="M0 0 C3.96 0 7.92 0 12 0 C12 7.92 12 15.84 12 24 C8.04 24 4.08 24 0 24 C0 16.08 0 8.16 0 0 Z " fill="#000000" transform="translate(13,313)"/>
<path d="M0 0 C7.92 0 15.84 0 24 0 C24 3.96 24 7.92 24 12 C16.08 12 8.16 12 0 12 C0 8.04 0 4.08 0 0 Z " fill="#009688" transform="translate(169,301)"/>
<path d="M0 0 C7.92 0 15.84 0 24 0 C24 3.96 24 7.92 24 12 C16.08 12 8.16 12 0 12 C0 8.04 0 4.08 0 0 Z " fill="#009688" transform="translate(145,289)"/>
<path d="M0 0 C7.92 0 15.84 0 24 0 C24 3.96 24 7.92 24 12 C16.08 12 8.16 12 0 12 C0 8.04 0 4.08 0 0 Z " fill="#FAD5BB" transform="translate(133,265)"/>
<path d="M0 0 C3.96 0 7.92 0 12 0 C12 7.92 12 15.84 12 24 C8.04 24 4.08 24 0 24 C0 16.08 0 8.16 0 0 Z " fill="#000000" transform="translate(349,205)"/>
<path d="M0 0 C3.96 0 7.92 0 12 0 C12 7.92 12 15.84 12 24 C8.04 24 4.08 24 0 24 C0 16.08 0 8.16 0 0 Z " fill="#009688" transform="translate(157,193)"/>
<path d="M0 0 C3.96 0 7.92 0 12 0 C12 7.92 12 15.84 12 24 C8.04 24 4.08 24 0 24 C0 16.08 0 8.16 0 0 Z " fill="#000000" transform="translate(193,145)"/>
<path d="M0 0 C3.96 0 7.92 0 12 0 C12 7.92 12 15.84 12 24 C8.04 24 4.08 24 0 24 C0 16.08 0 8.16 0 0 Z " fill="#000000" transform="translate(205,121)"/>
<path d="M0 0 C7.92 0 15.84 0 24 0 C24 3.96 24 7.92 24 12 C16.08 12 8.16 12 0 12 C0 8.04 0 4.08 0 0 Z " fill="#FFFFFF" transform="translate(181,121)"/>
<path d="M0 0 C3.96 0 7.92 0 12 0 C12 7.92 12 15.84 12 24 C8.04 24 4.08 24 0 24 C0 16.08 0 8.16 0 0 Z " fill="#000000" transform="translate(217,97)"/>
<path d="M0 0 C3.96 0 7.92 0 12 0 C12 7.92 12 15.84 12 24 C8.04 24 4.08 24 0 24 C0 16.08 0 8.16 0 0 Z " fill="#000000" transform="translate(25,73)"/>
<path d="M0 0 C3.96 0 7.92 0 12 0 C12 7.92 12 15.84 12 24 C8.04 24 4.08 24 0 24 C0 16.08 0 8.16 0 0 Z " fill="#000000" transform="translate(37,49)"/>
<path d="M0 0 C3.96 0 7.92 0 12 0 C12 7.92 12 15.84 12 24 C8.04 24 4.08 24 0 24 C0 16.08 0 8.16 0 0 Z " fill="#E91E63" transform="translate(265,25)"/>
<path d="M0 0 C3.96 0 7.92 0 12 0 C12 3.96 12 7.92 12 12 C8.04 12 4.08 12 0 12 C0 8.04 0 4.08 0 0 Z " fill="#000000" transform="translate(133,373)"/>
<path d="M0 0 C3.96 0 7.92 0 12 0 C12 3.96 12 7.92 12 12 C8.04 12 4.08 12 0 12 C0 8.04 0 4.08 0 0 Z " fill="#009688" transform="translate(133,361)"/>
<path d="M0 0 C3.96 0 7.92 0 12 0 C12 3.96 12 7.92 12 12 C8.04 12 4.08 12 0 12 C0 8.04 0 4.08 0 0 Z " fill="#009688" transform="translate(217,349)"/>
<path d="M0 0 C3.96 0 7.92 0 12 0 C12 3.96 12 7.92 12 12 C8.04 12 4.08 12 0 12 C0 8.04 0 4.08 0 0 Z " fill="#000000" transform="translate(73,349)"/>
<path d="M0 0 C3.96 0 7.92 0 12 0 C12 3.96 12 7.92 12 12 C8.04 12 4.08 12 0 12 C0 8.04 0 4.08 0 0 Z " fill="#000000" transform="translate(37,349)"/>
<path d="M0 0 C3.96 0 7.92 0 12 0 C12 3.96 12 7.92 12 12 C8.04 12 4.08 12 0 12 C0 8.04 0 4.08 0 0 Z " fill="#000000" transform="translate(301,337)"/>
<path d="M0 0 C3.96 0 7.92 0 12 0 C12 3.96 12 7.92 12 12 C8.04 12 4.08 12 0 12 C0 8.04 0 4.08 0 0 Z " fill="#000000" transform="translate(265,337)"/>
<path d="M0 0 C3.96 0 7.92 0 12 0 C12 3.96 12 7.92 12 12 C8.04 12 4.08 12 0 12 C0 8.04 0 4.08 0 0 Z " fill="#000000" transform="translate(25,337)"/>
<path d="M0 0 C3.96 0 7.92 0 12 0 C12 3.96 12 7.92 12 12 C8.04 12 4.08 12 0 12 C0 8.04 0 4.08 0 0 Z " fill="#009688" transform="translate(241,313)"/>
<path d="M0 0 C3.96 0 7.92 0 12 0 C12 3.96 12 7.92 12 12 C8.04 12 4.08 12 0 12 C0 8.04 0 4.08 0 0 Z " fill="#FAD5BB" transform="translate(109,313)"/>
<path d="M0 0 C3.96 0 7.92 0 12 0 C12 3.96 12 7.92 12 12 C8.04 12 4.08 12 0 12 C0 8.04 0 4.08 0 0 Z " fill="#000000" transform="translate(265,301)"/>
<path d="M0 0 C3.96 0 7.92 0 12 0 C12 3.96 12 7.92 12 12 C8.04 12 4.08 12 0 12 C0 8.04 0 4.08 0 0 Z " fill="#FFFFFF" transform="translate(253,301)"/>
<path d="M0 0 C3.96 0 7.92 0 12 0 C12 3.96 12 7.92 12 12 C8.04 12 4.08 12 0 12 C0 8.04 0 4.08 0 0 Z " fill="#009688" transform="translate(229,301)"/>
<path d="M0 0 C3.96 0 7.92 0 12 0 C12 3.96 12 7.92 12 12 C8.04 12 4.08 12 0 12 C0 8.04 0 4.08 0 0 Z " fill="#000000" transform="translate(277,289)"/>
<path d="M0 0 C3.96 0 7.92 0 12 0 C12 3.96 12 7.92 12 12 C8.04 12 4.08 12 0 12 C0 8.04 0 4.08 0 0 Z " fill="#FAD5BB" transform="translate(253,289)"/>
<path d="M0 0 C3.96 0 7.92 0 12 0 C12 3.96 12 7.92 12 12 C8.04 12 4.08 12 0 12 C0 8.04 0 4.08 0 0 Z " fill="#009688" transform="translate(217,289)"/>
<path d="M0 0 C3.96 0 7.92 0 12 0 C12 3.96 12 7.92 12 12 C8.04 12 4.08 12 0 12 C0 8.04 0 4.08 0 0 Z " fill="#009688" transform="translate(193,289)"/>
<path d="M0 0 C3.96 0 7.92 0 12 0 C12 3.96 12 7.92 12 12 C8.04 12 4.08 12 0 12 C0 8.04 0 4.08 0 0 Z " fill="#212121" transform="translate(145,277)"/>
<path d="M0 0 C3.96 0 7.92 0 12 0 C12 3.96 12 7.92 12 12 C8.04 12 4.08 12 0 12 C0 8.04 0 4.08 0 0 Z " fill="#009688" transform="translate(241,265)"/>
<path d="M0 0 C3.96 0 7.92 0 12 0 C12 3.96 12 7.92 12 12 C8.04 12 4.08 12 0 12 C0 8.04 0 4.08 0 0 Z " fill="#000000" transform="translate(121,265)"/>
<path d="M0 0 C3.96 0 7.92 0 12 0 C12 3.96 12 7.92 12 12 C8.04 12 4.08 12 0 12 C0 8.04 0 4.08 0 0 Z " fill="#000000" transform="translate(313,253)"/>
<path d="M0 0 C3.96 0 7.92 0 12 0 C12 3.96 12 7.92 12 12 C8.04 12 4.08 12 0 12 C0 8.04 0 4.08 0 0 Z " fill="#000000" transform="translate(277,253)"/>
<path d="M0 0 C3.96 0 7.92 0 12 0 C12 3.96 12 7.92 12 12 C8.04 12 4.08 12 0 12 C0 8.04 0 4.08 0 0 Z " fill="#FAD5BB" transform="translate(229,253)"/>
<path d="M0 0 C3.96 0 7.92 0 12 0 C12 3.96 12 7.92 12 12 C8.04 12 4.08 12 0 12 C0 8.04 0 4.08 0 0 Z " fill="#000000" transform="translate(133,253)"/>
<path d="M0 0 C3.96 0 7.92 0 12 0 C12 3.96 12 7.92 12 12 C8.04 12 4.08 12 0 12 C0 8.04 0 4.08 0 0 Z " fill="#000000" transform="translate(325,241)"/>
<path d="M0 0 C3.96 0 7.92 0 12 0 C12 3.96 12 7.92 12 12 C8.04 12 4.08 12 0 12 C0 8.04 0 4.08 0 0 Z " fill="#009688" transform="translate(133,241)"/>
<path d="M0 0 C3.96 0 7.92 0 12 0 C12 3.96 12 7.92 12 12 C8.04 12 4.08 12 0 12 C0 8.04 0 4.08 0 0 Z " fill="#000000" transform="translate(337,229)"/>
<path d="M0 0 C3.96 0 7.92 0 12 0 C12 3.96 12 7.92 12 12 C8.04 12 4.08 12 0 12 C0 8.04 0 4.08 0 0 Z " fill="#2196F3" transform="translate(229,205)"/>
<path d="M0 0 C3.96 0 7.92 0 12 0 C12 3.96 12 7.92 12 12 C8.04 12 4.08 12 0 12 C0 8.04 0 4.08 0 0 Z " fill="#000000" transform="translate(337,193)"/>
<path d="M0 0 C3.96 0 7.92 0 12 0 C12 3.96 12 7.92 12 12 C8.04 12 4.08 12 0 12 C0 8.04 0 4.08 0 0 Z " fill="#2196F3" transform="translate(157,193)"/>
<path d="M0 0 C3.96 0 7.92 0 12 0 C12 3.96 12 7.92 12 12 C8.04 12 4.08 12 0 12 C0 8.04 0 4.08 0 0 Z " fill="#2196F3" transform="translate(229,181)"/>
<path d="M0 0 C3.96 0 7.92 0 12 0 C12 3.96 12 7.92 12 12 C8.04 12 4.08 12 0 12 C0 8.04 0 4.08 0 0 Z " fill="#000000" transform="translate(157,145)"/>
<path d="M0 0 C3.96 0 7.92 0 12 0 C12 3.96 12 7.92 12 12 C8.04 12 4.08 12 0 12 C0 8.04 0 4.08 0 0 Z " fill="#000000" transform="translate(277,133)"/>
<path d="M0 0 C3.96 0 7.92 0 12 0 C12 3.96 12 7.92 12 12 C8.04 12 4.08 12 0 12 C0 8.04 0 4.08 0 0 Z " fill="#000000" transform="translate(169,133)"/>
<path d="M0 0 C3.96 0 7.92 0 12 0 C12 3.96 12 7.92 12 12 C8.04 12 4.08 12 0 12 C0 8.04 0 4.08 0 0 Z " fill="#FFFFFF" transform="translate(277,97)"/>
<path d="M0 0 C3.96 0 7.92 0 12 0 C12 3.96 12 7.92 12 12 C8.04 12 4.08 12 0 12 C0 8.04 0 4.08 0 0 Z " fill="#000000" transform="translate(121,97)"/>
<path d="M0 0 C3.96 0 7.92 0 12 0 C12 3.96 12 7.92 12 12 C8.04 12 4.08 12 0 12 C0 8.04 0 4.08 0 0 Z " fill="#000000" transform="translate(85,85)"/>
<path d="M0 0 C3.96 0 7.92 0 12 0 C12 3.96 12 7.92 12 12 C8.04 12 4.08 12 0 12 C0 8.04 0 4.08 0 0 Z " fill="#000000" transform="translate(97,73)"/>
<path d="M0 0 C3.96 0 7.92 0 12 0 C12 3.96 12 7.92 12 12 C8.04 12 4.08 12 0 12 C0 8.04 0 4.08 0 0 Z " fill="#E91E63" transform="translate(85,73)"/>
<path d="M0 0 C3.96 0 7.92 0 12 0 C12 3.96 12 7.92 12 12 C8.04 12 4.08 12 0 12 C0 8.04 0 4.08 0 0 Z " fill="#000000" transform="translate(73,73)"/>
<path d="M0 0 C3.96 0 7.92 0 12 0 C12 3.96 12 7.92 12 12 C8.04 12 4.08 12 0 12 C0 8.04 0 4.08 0 0 Z " fill="#000000" transform="translate(217,61)"/>
<path d="M0 0 C3.96 0 7.92 0 12 0 C12 3.96 12 7.92 12 12 C8.04 12 4.08 12 0 12 C0 8.04 0 4.08 0 0 Z " fill="#000000" transform="translate(109,61)"/>
<path d="M0 0 C3.96 0 7.92 0 12 0 C12 3.96 12 7.92 12 12 C8.04 12 4.08 12 0 12 C0 8.04 0 4.08 0 0 Z " fill="#E91E63" transform="translate(97,61)"/>
<path d="M0 0 C3.96 0 7.92 0 12 0 C12 3.96 12 7.92 12 12 C8.04 12 4.08 12 0 12 C0 8.04 0 4.08 0 0 Z " fill="#000000" transform="translate(205,49)"/>
<path d="M0 0 C3.96 0 7.92 0 12 0 C12 3.96 12 7.92 12 12 C8.04 12 4.08 12 0 12 C0 8.04 0 4.08 0 0 Z " fill="#000000" transform="translate(121,49)"/>
<path d="M0 0 C3.96 0 7.92 0 12 0 C12 3.96 12 7.92 12 12 C8.04 12 4.08 12 0 12 C0 8.04 0 4.08 0 0 Z " fill="#E91E63" transform="translate(109,49)"/>
<path d="M0 0 C3.96 0 7.92 0 12 0 C12 3.96 12 7.92 12 12 C8.04 12 4.08 12 0 12 C0 8.04 0 4.08 0 0 Z " fill="#E91E63" transform="translate(97,37)"/>
<path d="M0 0 C3.96 0 7.92 0 12 0 C12 3.96 12 7.92 12 12 C8.04 12 4.08 12 0 12 C0 8.04 0 4.08 0 0 Z " fill="#000000" transform="translate(49,37)"/>
<path d="M0 0 C3.96 0 7.92 0 12 0 C12 3.96 12 7.92 12 12 C8.04 12 4.08 12 0 12 C0 8.04 0 4.08 0 0 Z " fill="#E91E63" transform="translate(85,25)"/>
<path d="M0 0 C3.96 0 7.92 0 12 0 C12 3.96 12 7.92 12 12 C8.04 12 4.08 12 0 12 C0 8.04 0 4.08 0 0 Z " fill="#E91E63" transform="translate(253,13)"/>
</svg>
